%TF.GenerationSoftware,KiCad,Pcbnew,10.0.5-10.0.5~ubuntu24.04.1*%
%TF.CreationDate,2026-09-01T22:32:04-06:00*%
%TF.ProjectId,status_beacon,73746174-7573-45f6-9265-61636f6e2e6b,rev?*%
%TF.SameCoordinates,Original*%
%TF.FileFunction,Legend,Top*%
%TF.FilePolarity,Positive*%
%FSLAX46Y46*%
G04 Gerber Fmt 4.6, Leading zero omitted, Abs format (unit mm)*
G04 Created by KiCad (PCBNEW 10.0.5-10.0.5~ubuntu24.04.1) date 2026-09-01 22:32:04*
%MOMM*%
%LPD*%
G01*
G04 APERTURE LIST*
G04 Aperture macros list*
%AMRoundRect*
0 Rectangle with rounded corners*
0 $1 Rounding radius*
0 $2 $3 $4 $5 $6 $7 $8 $9 X,Y pos of 4 corners*
0 Add a 4 corners polygon primitive as box body*
4,1,4,$2,$3,$4,$5,$6,$7,$8,$9,$2,$3,0*
0 Add four circle primitives for the rounded corners*
1,1,$1+$1,$2,$3*
1,1,$1+$1,$4,$5*
1,1,$1+$1,$6,$7*
1,1,$1+$1,$8,$9*
0 Add four rect primitives between the rounded corners*
20,1,$1+$1,$2,$3,$4,$5,0*
20,1,$1+$1,$4,$5,$6,$7,0*
20,1,$1+$1,$6,$7,$8,$9,0*
20,1,$1+$1,$8,$9,$2,$3,0*%
G04 Aperture macros list end*
%ADD10C,0.150000*%
%ADD11C,0.120000*%
%ADD12RoundRect,0.250000X-0.250000X-0.475000X0.250000X-0.475000X0.250000X0.475000X-0.250000X0.475000X0*%
%ADD13RoundRect,0.090000X0.360000X-0.660000X0.360000X0.660000X-0.360000X0.660000X-0.360000X-0.660000X0*%
%ADD14C,0.990600*%
%ADD15C,0.787400*%
%ADD16C,1.000000*%
%ADD17RoundRect,0.140000X0.036244X0.217224X-0.206244X0.077224X-0.036244X-0.217224X0.206244X-0.077224X0*%
%ADD18RoundRect,0.140000X0.170000X-0.140000X0.170000X0.140000X-0.170000X0.140000X-0.170000X-0.140000X0*%
%ADD19RoundRect,0.135000X-0.135000X-0.185000X0.135000X-0.185000X0.135000X0.185000X-0.135000X0.185000X0*%
%ADD20RoundRect,0.090000X-0.641769X0.391577X0.018231X-0.751577X0.641769X-0.391577X-0.018231X0.751577X0*%
%ADD21RoundRect,0.090000X0.391577X0.641769X-0.751577X-0.018231X-0.391577X-0.641769X0.751577X0.018231X0*%
%ADD22RoundRect,0.090000X0.751577X-0.018231X-0.391577X0.641769X-0.751577X0.018231X0.391577X-0.641769X0*%
%ADD23RoundRect,0.140000X0.206244X0.077224X-0.036244X0.217224X-0.206244X-0.077224X0.036244X-0.217224X0*%
%ADD24RoundRect,0.140000X-0.206244X-0.077224X0.036244X-0.217224X0.206244X0.077224X-0.036244X0.217224X0*%
%ADD25RoundRect,0.050010X-0.099990X-0.199990X0.099990X-0.199990X0.099990X0.199990X-0.099990X0.199990X0*%
%ADD26C,0.600000*%
%ADD27R,0.600000X1.300000*%
%ADD28R,0.300000X1.300000*%
%ADD29O,1.200000X2.000000*%
%ADD30O,1.200000X1.800000*%
%ADD31RoundRect,0.090000X-0.018231X-0.751577X0.641769X0.391577X0.018231X0.751577X-0.641769X-0.391577X0*%
%ADD32RoundRect,0.090000X0.660000X0.360000X-0.660000X0.360000X-0.660000X-0.360000X0.660000X-0.360000X0*%
%ADD33RoundRect,0.050010X0.099990X0.199990X-0.099990X0.199990X-0.099990X-0.199990X0.099990X-0.199990X0*%
%ADD34RoundRect,0.135000X0.135000X0.185000X-0.135000X0.185000X-0.135000X-0.185000X0.135000X-0.185000X0*%
%ADD35RoundRect,0.090000X0.641769X-0.391577X-0.018231X0.751577X-0.641769X0.391577X0.018231X-0.751577X0*%
%ADD36RoundRect,0.140000X-0.077224X0.206244X-0.217224X-0.036244X0.077224X-0.206244X0.217224X0.036244X0*%
%ADD37RoundRect,0.140000X0.217224X-0.036244X0.077224X0.206244X-0.217224X0.036244X-0.077224X-0.206244X0*%
%ADD38RoundRect,0.140000X-0.140000X-0.170000X0.140000X-0.170000X0.140000X0.170000X-0.140000X0.170000X0*%
%ADD39RoundRect,0.140000X-0.217224X0.036244X-0.077224X-0.206244X0.217224X-0.036244X0.077224X0.206244X0*%
%ADD40RoundRect,0.100000X-0.637500X-0.100000X0.637500X-0.100000X0.637500X0.100000X-0.637500X0.100000X0*%
%ADD41RoundRect,0.140000X0.077224X-0.206244X0.217224X0.036244X-0.077224X0.206244X-0.217224X-0.036244X0*%
%ADD42RoundRect,0.090000X-0.660000X-0.360000X0.660000X-0.360000X0.660000X0.360000X-0.660000X0.360000X0*%
%ADD43RoundRect,0.090000X-0.360000X0.660000X-0.360000X-0.660000X0.360000X-0.660000X0.360000X0.660000X0*%
%ADD44RoundRect,0.140000X-0.036244X-0.217224X0.206244X-0.077224X0.036244X0.217224X-0.206244X0.077224X0*%
%ADD45RoundRect,0.250000X-0.262500X-0.450000X0.262500X-0.450000X0.262500X0.450000X-0.262500X0.450000X0*%
%ADD46RoundRect,0.140000X-0.170000X0.140000X-0.170000X-0.140000X0.170000X-0.140000X0.170000X0.140000X0*%
%ADD47RoundRect,0.090000X0.018231X0.751577X-0.641769X-0.391577X-0.018231X-0.751577X0.641769X0.391577X0*%
%ADD48RoundRect,0.090000X-0.751577X0.018231X0.391577X-0.641769X0.751577X-0.018231X-0.391577X0.641769X0*%
%ADD49RoundRect,0.090000X-0.391577X-0.641769X0.751577X0.018231X0.391577X0.641769X-0.751577X-0.018231X0*%
%ADD50RoundRect,0.140000X0.140000X0.170000X-0.140000X0.170000X-0.140000X-0.170000X0.140000X-0.170000X0*%
%ADD51R,1.800000X1.100000*%
G04 APERTURE END LIST*
D10*
X115762295Y-103771428D02*
X115762295Y-104228571D01*
X115762295Y-103999999D02*
X114962295Y-103999999D01*
X114962295Y-103999999D02*
X115076580Y-104076190D01*
X115076580Y-104076190D02*
X115152771Y-104152380D01*
X115152771Y-104152380D02*
X115190866Y-104228571D01*
X84463738Y-104614994D02*
X84235166Y-104219097D01*
X84349452Y-104417045D02*
X85042272Y-104017045D01*
X85042272Y-104017045D02*
X84905203Y-104008205D01*
X84905203Y-104008205D02*
X84801124Y-103980318D01*
X84801124Y-103980318D02*
X84730038Y-103933382D01*
X95385005Y-84463738D02*
X95780902Y-84235166D01*
X95582954Y-84349452D02*
X95982954Y-85042272D01*
X95982954Y-85042272D02*
X95991794Y-84905203D01*
X95991794Y-84905203D02*
X96019681Y-84801124D01*
X96019681Y-84801124D02*
X96066617Y-84730038D01*
X111147300Y-88235166D02*
X111543197Y-88463737D01*
X111345249Y-88349451D02*
X110945249Y-89042272D01*
X110945249Y-89042272D02*
X111068375Y-88981393D01*
X111068375Y-88981393D02*
X111172453Y-88953505D01*
X111172453Y-88953505D02*
X111257483Y-88958609D01*
X111764832Y-111147300D02*
X111536261Y-111543197D01*
X111650547Y-111345249D02*
X110957726Y-110945249D01*
X110957726Y-110945249D02*
X111018605Y-111068375D01*
X111018605Y-111068375D02*
X111046493Y-111172453D01*
X111046493Y-111172453D02*
X111041389Y-111257483D01*
X103771428Y-84237704D02*
X104228571Y-84237704D01*
X103999999Y-84237704D02*
X103999999Y-85037704D01*
X103999999Y-85037704D02*
X104076190Y-84923419D01*
X104076190Y-84923419D02*
X104152380Y-84847228D01*
X104152380Y-84847228D02*
X104228571Y-84809133D01*
X115536260Y-95385005D02*
X115764832Y-95780902D01*
X115650546Y-95582954D02*
X114957726Y-95982954D01*
X114957726Y-95982954D02*
X115094795Y-95991794D01*
X115094795Y-95991794D02*
X115198874Y-96019681D01*
X115198874Y-96019681D02*
X115269960Y-96066617D01*
X96228571Y-115762295D02*
X95771428Y-115762295D01*
X96000000Y-115762295D02*
X96000000Y-114962295D01*
X96000000Y-114962295D02*
X95923809Y-115076580D01*
X95923809Y-115076580D02*
X95847619Y-115152771D01*
X95847619Y-115152771D02*
X95771428Y-115190866D01*
X84237704Y-96228571D02*
X84237704Y-95771428D01*
X84237704Y-96000000D02*
X85037704Y-96000000D01*
X85037704Y-96000000D02*
X84923419Y-95923809D01*
X84923419Y-95923809D02*
X84847228Y-95847619D01*
X84847228Y-95847619D02*
X84809133Y-95771428D01*
X88235166Y-88852699D02*
X88463737Y-88456802D01*
X88349451Y-88654750D02*
X89042272Y-89054750D01*
X89042272Y-89054750D02*
X88981393Y-88931624D01*
X88981393Y-88931624D02*
X88953505Y-88827546D01*
X88953505Y-88827546D02*
X88958609Y-88742516D01*
X88852699Y-111764832D02*
X88456802Y-111536261D01*
X88654750Y-111650547D02*
X89054750Y-110957726D01*
X89054750Y-110957726D02*
X88931624Y-111018605D01*
X88931624Y-111018605D02*
X88827546Y-111046493D01*
X88827546Y-111046493D02*
X88742516Y-111041389D01*
X104614994Y-115536260D02*
X104219097Y-115764832D01*
X104417045Y-115650546D02*
X104017045Y-114957726D01*
X104017045Y-114957726D02*
X104008205Y-115094795D01*
X104008205Y-115094795D02*
X103980318Y-115198874D01*
X103980318Y-115198874D02*
X103933382Y-115269960D01*
%TO.C,C1*%
D11*
X76340636Y-111705996D02*
X76863140Y-111705996D01*
X76340636Y-113175996D02*
X76863140Y-113175996D01*
%TO.C,D1*%
X114250000Y-103500000D02*
X114250000Y-96500000D01*
X114250000Y-103500000D02*
X119750000Y-103500000D01*
X117900000Y-97300000D02*
X116100000Y-97300000D01*
X117900000Y-102700000D02*
X116100000Y-102700000D01*
X119300000Y-96500000D02*
X114250000Y-96500000D01*
X119750000Y-96950000D02*
X119300000Y-96500000D01*
X119750000Y-103500000D02*
X119750000Y-96950000D01*
%TO.C,J2*%
X98095000Y-108470000D02*
X98095000Y-107835000D01*
X98730000Y-108470000D02*
X98095000Y-108470000D01*
%TO.C,TP2*%
X75357923Y-107747850D02*
G75*
G02*
X73957923Y-107747850I-700000J0D01*
G01*
X73957923Y-107747850D02*
G75*
G02*
X75357923Y-107747850I700000J0D01*
G01*
%TO.C,TP7*%
X116061213Y-114610719D02*
G75*
G02*
X114661213Y-114610719I-700000J0D01*
G01*
X114661213Y-114610719D02*
G75*
G02*
X116061213Y-114610719I700000J0D01*
G01*
%TO.C,C13*%
X93663389Y-88808995D02*
X93476611Y-88916831D01*
X94023389Y-89432533D02*
X93836611Y-89540369D01*
%TO.C,TP8*%
X106697841Y-120333860D02*
G75*
G02*
X105297841Y-120333860I-700000J0D01*
G01*
X105297841Y-120333860D02*
G75*
G02*
X106697841Y-120333860I700000J0D01*
G01*
%TO.C,C5*%
X112140000Y-100107836D02*
X112140000Y-99892164D01*
X112860000Y-100107836D02*
X112860000Y-99892164D01*
%TO.C,R5*%
X94046359Y-95620000D02*
X94353641Y-95620000D01*
X94046359Y-96380000D02*
X94353641Y-96380000D01*
%TO.C,D6*%
X81145998Y-106843911D02*
X84420998Y-112516377D01*
X83148145Y-106611731D02*
X84706991Y-105711731D01*
X84420998Y-112516377D02*
X85035710Y-112681089D01*
X85035710Y-112681089D02*
X89409138Y-110156089D01*
X85848145Y-111288269D02*
X87406991Y-110388269D01*
X85909138Y-104093911D02*
X81145998Y-106843911D01*
X85909138Y-104093911D02*
X89409138Y-110156089D01*
%TO.C,D9*%
X87318911Y-85035710D02*
X89843911Y-89409138D01*
X87483623Y-84420998D02*
X87318911Y-85035710D01*
X88711731Y-85848145D02*
X89611731Y-87406991D01*
X93156089Y-81145998D02*
X87483623Y-84420998D01*
X93388269Y-83148145D02*
X94288269Y-84706991D01*
X95906089Y-85909138D02*
X89843911Y-89409138D01*
X95906089Y-85909138D02*
X93156089Y-81145998D01*
%TO.C,D11*%
X106611731Y-83148145D02*
X105711731Y-84706991D01*
X106618911Y-81535710D02*
X104093911Y-85909138D01*
X107233623Y-81370998D02*
X106618911Y-81535710D01*
X110156089Y-89409138D02*
X104093911Y-85909138D01*
X110156089Y-89409138D02*
X112906089Y-84645998D01*
X111288269Y-85848145D02*
X110388269Y-87406991D01*
X112906089Y-84645998D02*
X107233623Y-81370998D01*
%TO.C,C15*%
X106163389Y-89540369D02*
X105976611Y-89432533D01*
X106523389Y-88916831D02*
X106336611Y-88808995D01*
%TO.C,C9*%
X93476611Y-111083168D02*
X93663389Y-111191004D01*
X93836611Y-110459630D02*
X94023389Y-110567466D01*
%TO.C,TP1*%
X121294367Y-116676990D02*
G75*
G02*
X119894367Y-116676990I-700000J0D01*
G01*
X119894367Y-116676990D02*
G75*
G02*
X121294367Y-116676990I700000J0D01*
G01*
%TO.C,D2*%
X110590861Y-110156089D02*
X114090861Y-104093911D01*
X110590861Y-110156089D02*
X115354001Y-112906089D01*
X114151854Y-111288269D02*
X112593008Y-110388269D01*
X115354001Y-112906089D02*
X118629001Y-107233623D01*
X116851854Y-106611731D02*
X115293008Y-105711731D01*
X118464289Y-106618911D02*
X114090861Y-104093911D01*
X118629001Y-107233623D02*
X118464289Y-106618911D01*
%TO.C,TP5*%
X113257035Y-96635352D02*
G75*
G02*
X111857035Y-96635352I-700000J0D01*
G01*
X111857035Y-96635352D02*
G75*
G02*
X113257035Y-96635352I700000J0D01*
G01*
%TO.C,D10*%
X96500000Y-80700000D02*
X96500000Y-85750000D01*
X96950000Y-80250000D02*
X96500000Y-80700000D01*
X97300000Y-82100000D02*
X97300000Y-83900000D01*
X102700000Y-82100000D02*
X102700000Y-83900000D01*
X103500000Y-80250000D02*
X96950000Y-80250000D01*
X103500000Y-85750000D02*
X96500000Y-85750000D01*
X103500000Y-85750000D02*
X103500000Y-80250000D01*
%TO.C,TP15*%
X105672647Y-79391439D02*
G75*
G02*
X104272647Y-79391439I-700000J0D01*
G01*
X104272647Y-79391439D02*
G75*
G02*
X105672647Y-79391439I700000J0D01*
G01*
%TO.C,TP6*%
X121308560Y-104972647D02*
G75*
G02*
X119908560Y-104972647I-700000J0D01*
G01*
X119908560Y-104972647D02*
G75*
G02*
X121308560Y-104972647I700000J0D01*
G01*
%TO.C,TP3*%
X83666128Y-120300177D02*
G75*
G02*
X82266128Y-120300177I-700000J0D01*
G01*
X82266128Y-120300177D02*
G75*
G02*
X83666128Y-120300177I700000J0D01*
G01*
%TO.C,R2*%
X93653641Y-124120000D02*
X93346359Y-124120000D01*
X93653641Y-124880000D02*
X93346359Y-124880000D01*
%TO.C,TP11*%
X80366139Y-105997841D02*
G75*
G02*
X78966139Y-105997841I-700000J0D01*
G01*
X78966139Y-105997841D02*
G75*
G02*
X80366139Y-105997841I700000J0D01*
G01*
%TO.C,D12*%
X114090861Y-95906089D02*
X110590861Y-89843911D01*
X114090861Y-95906089D02*
X118854001Y-93156089D01*
X114151854Y-88711731D02*
X112593008Y-89611731D01*
X114964289Y-87318911D02*
X110590861Y-89843911D01*
X115579001Y-87483623D02*
X114964289Y-87318911D01*
X116851854Y-93388269D02*
X115293008Y-94288269D01*
X118854001Y-93156089D02*
X115579001Y-87483623D01*
%TO.C,C12*%
X88916831Y-93476611D02*
X88808995Y-93663389D01*
X89540369Y-93836611D02*
X89432533Y-94023389D01*
%TO.C,TP16*%
X115310719Y-84638786D02*
G75*
G02*
X113910719Y-84638786I-700000J0D01*
G01*
X113910719Y-84638786D02*
G75*
G02*
X115310719Y-84638786I700000J0D01*
G01*
%TO.C,C16*%
X110567466Y-94023389D02*
X110459630Y-93836611D01*
X111191004Y-93663389D02*
X111083168Y-93476611D01*
%TO.C,C4*%
X102792164Y-103240000D02*
X103007836Y-103240000D01*
X102792164Y-103960000D02*
X103007836Y-103960000D01*
%TO.C,C10*%
X88808995Y-106336611D02*
X88916831Y-106523389D01*
X89432533Y-105976611D02*
X89540369Y-106163389D01*
%TO.C,U1*%
X97690000Y-89415000D02*
X102310000Y-89415000D01*
X102310000Y-96185000D02*
X97690000Y-96185000D01*
X96140000Y-89870000D02*
X95810000Y-90110000D01*
X95810000Y-89630000D01*
X96140000Y-89870000D01*
G36*
X96140000Y-89870000D02*
G01*
X95810000Y-90110000D01*
X95810000Y-89630000D01*
X96140000Y-89870000D01*
G37*
%TO.C,C6*%
X110459630Y-106163389D02*
X110567466Y-105976611D01*
X111083168Y-106523389D02*
X111191004Y-106336611D01*
%TO.C,TP13*%
X85338786Y-85389280D02*
G75*
G02*
X83938786Y-85389280I-700000J0D01*
G01*
X83938786Y-85389280D02*
G75*
G02*
X85338786Y-85389280I700000J0D01*
G01*
%TO.C,TP14*%
X94702158Y-79666139D02*
G75*
G02*
X93302158Y-79666139I-700000J0D01*
G01*
X93302158Y-79666139D02*
G75*
G02*
X94702158Y-79666139I700000J0D01*
G01*
%TO.C,TP4*%
X108900000Y-94400000D02*
G75*
G02*
X107500000Y-94400000I-700000J0D01*
G01*
X107500000Y-94400000D02*
G75*
G02*
X108900000Y-94400000I700000J0D01*
G01*
%TO.C,D4*%
X96500000Y-114250000D02*
X96500000Y-119750000D01*
X96500000Y-114250000D02*
X103500000Y-114250000D01*
X96500000Y-119750000D02*
X103050000Y-119750000D01*
X97300000Y-117900000D02*
X97300000Y-116100000D01*
X102700000Y-117900000D02*
X102700000Y-116100000D01*
X103050000Y-119750000D02*
X103500000Y-119300000D01*
X103500000Y-119300000D02*
X103500000Y-114250000D01*
%TO.C,R1*%
X106346359Y-124120000D02*
X106653641Y-124120000D01*
X106346359Y-124880000D02*
X106653641Y-124880000D01*
%TO.C,D7*%
X80250000Y-96500000D02*
X80250000Y-103050000D01*
X80250000Y-103050000D02*
X80700000Y-103500000D01*
X80700000Y-103500000D02*
X85750000Y-103500000D01*
X82100000Y-97300000D02*
X83900000Y-97300000D01*
X82100000Y-102700000D02*
X83900000Y-102700000D01*
X85750000Y-96500000D02*
X80250000Y-96500000D01*
X85750000Y-96500000D02*
X85750000Y-103500000D01*
%TO.C,TP12*%
X80091439Y-95027352D02*
G75*
G02*
X78691439Y-95027352I-700000J0D01*
G01*
X78691439Y-95027352D02*
G75*
G02*
X80091439Y-95027352I700000J0D01*
G01*
%TO.C,C7*%
X105976611Y-110567466D02*
X106163389Y-110459630D01*
X106336611Y-111191004D02*
X106523389Y-111083168D01*
%TO.C,R3*%
X79178568Y-115941990D02*
X79632696Y-115941990D01*
X79178568Y-117411990D02*
X79632696Y-117411990D01*
%TO.C,TP17*%
X120951510Y-94201604D02*
G75*
G02*
X119551510Y-94201604I-700000J0D01*
G01*
X119551510Y-94201604D02*
G75*
G02*
X120951510Y-94201604I700000J0D01*
G01*
%TO.C,C11*%
X87140000Y-99892164D02*
X87140000Y-100107836D01*
X87860000Y-99892164D02*
X87860000Y-100107836D01*
%TO.C,D8*%
X81370998Y-92766377D02*
X81535710Y-93381089D01*
X81535710Y-93381089D02*
X85909138Y-95906089D01*
X83148145Y-93388269D02*
X84706991Y-94288269D01*
X84645998Y-87093911D02*
X81370998Y-92766377D01*
X85848145Y-88711731D02*
X87406991Y-89611731D01*
X89409138Y-89843911D02*
X84645998Y-87093911D01*
X89409138Y-89843911D02*
X85909138Y-95906089D01*
%TO.C,TP9*%
X95727352Y-120608560D02*
G75*
G02*
X94327352Y-120608560I-700000J0D01*
G01*
X94327352Y-120608560D02*
G75*
G02*
X95727352Y-120608560I700000J0D01*
G01*
%TO.C,D5*%
X87093911Y-115354001D02*
X92766377Y-118629001D01*
X88711731Y-114151854D02*
X89611731Y-112593008D01*
X89843911Y-110590861D02*
X87093911Y-115354001D01*
X89843911Y-110590861D02*
X95906089Y-114090861D01*
X92766377Y-118629001D02*
X93381089Y-118464289D01*
X93381089Y-118464289D02*
X95906089Y-114090861D01*
X93388269Y-116851854D02*
X94288269Y-115293008D01*
%TO.C,C2*%
X93840000Y-94107836D02*
X93840000Y-93892164D01*
X94560000Y-94107836D02*
X94560000Y-93892164D01*
%TO.C,D3*%
X104093911Y-114090861D02*
X106843911Y-118854001D01*
X104093911Y-114090861D02*
X110156089Y-110590861D01*
X106611731Y-116851854D02*
X105711731Y-115293008D01*
X106843911Y-118854001D02*
X112516377Y-115579001D01*
X111288269Y-114151854D02*
X110388269Y-112593008D01*
X112516377Y-115579001D02*
X112681089Y-114964289D01*
X112681089Y-114964289D02*
X110156089Y-110590861D01*
%TO.C,C3*%
X105440000Y-93707836D02*
X105440000Y-93492164D01*
X106160000Y-93707836D02*
X106160000Y-93492164D01*
%TO.C,C8*%
X99892164Y-112140000D02*
X100107836Y-112140000D01*
X99892164Y-112860000D02*
X100107836Y-112860000D01*
%TO.C,C14*%
X100107836Y-87140000D02*
X99892164Y-87140000D01*
X100107836Y-87860000D02*
X99892164Y-87860000D01*
%TO.C,R6*%
X94046359Y-97420000D02*
X94353641Y-97420000D01*
X94046359Y-98180000D02*
X94353641Y-98180000D01*
%TO.C,TP10*%
X86089280Y-115361213D02*
G75*
G02*
X84689280Y-115361213I-700000J0D01*
G01*
X84689280Y-115361213D02*
G75*
G02*
X86089280Y-115361213I700000J0D01*
G01*
%TO.C,R4*%
X105646359Y-95620000D02*
X105953641Y-95620000D01*
X105646359Y-96380000D02*
X105953641Y-96380000D01*
%TO.C,SW1*%
X97280000Y-101040000D02*
X97280000Y-98960000D01*
X98550000Y-97280000D02*
X98060000Y-97770000D01*
X98550000Y-97280000D02*
X101450000Y-97280000D01*
X98550000Y-102720000D02*
X98060000Y-102230000D01*
X98550000Y-102720000D02*
X101450000Y-102720000D01*
X101450000Y-97280000D02*
X101940000Y-97770000D01*
X101450000Y-102720000D02*
X101940000Y-102230000D01*
X102720000Y-101040000D02*
X102720000Y-98960000D01*
%TD*%
%LPC*%
D12*
%TO.C,C1*%
X75651888Y-112440996D03*
X77551888Y-112440996D03*
%TD*%
D13*
%TO.C,D1*%
X115350000Y-102450000D03*
X118650000Y-102450000D03*
X118650000Y-97550000D03*
X115350000Y-97550000D03*
%TD*%
D14*
%TO.C,J2*%
X97460000Y-107200000D03*
X102540000Y-106184000D03*
X102540000Y-108216000D03*
D15*
X98730000Y-107835000D03*
X98730000Y-106565000D03*
X100000000Y-107835000D03*
X100000000Y-106565000D03*
X101270000Y-107835000D03*
X101270000Y-106565000D03*
%TD*%
D16*
%TO.C,TP2*%
X74657923Y-107747850D03*
%TD*%
%TO.C,TP7*%
X115361213Y-114610719D03*
%TD*%
D17*
%TO.C,C13*%
X94165692Y-88934682D03*
X93334308Y-89414682D03*
%TD*%
D16*
%TO.C,TP8*%
X105997841Y-120333860D03*
%TD*%
D18*
%TO.C,C5*%
X112500000Y-100480000D03*
X112500000Y-99520000D03*
%TD*%
D19*
%TO.C,R5*%
X93690000Y-96000000D03*
X94710000Y-96000000D03*
%TD*%
D20*
%TO.C,D6*%
X85481510Y-105553238D03*
X82623626Y-107203238D03*
X85073626Y-111446762D03*
X87931510Y-109796762D03*
%TD*%
D21*
%TO.C,D9*%
X94446762Y-85481510D03*
X92796762Y-82623626D03*
X88553238Y-85073626D03*
X90203238Y-87931510D03*
%TD*%
D22*
%TO.C,D11*%
X109796762Y-87931510D03*
X111446762Y-85073626D03*
X107203238Y-82623626D03*
X105553238Y-85481510D03*
%TD*%
D23*
%TO.C,C15*%
X106665692Y-89414682D03*
X105834308Y-88934682D03*
%TD*%
D24*
%TO.C,C9*%
X93334308Y-110585317D03*
X94165692Y-111065317D03*
%TD*%
D16*
%TO.C,TP1*%
X120594367Y-116676990D03*
%TD*%
D25*
%TO.C,D15*%
X89850000Y-124500000D03*
X90550000Y-124500000D03*
%TD*%
D26*
%TO.C,J1*%
X102900700Y-129092540D03*
X97099300Y-129092540D03*
D27*
X103200400Y-130360000D03*
X102400300Y-130360000D03*
D28*
X101249700Y-130360000D03*
X100248900Y-130360000D03*
X99751100Y-130360000D03*
X98750300Y-130360000D03*
D27*
X97599700Y-130360000D03*
X96799600Y-130360000D03*
X96799600Y-130360000D03*
X97599700Y-130360000D03*
D28*
X98249900Y-130360000D03*
X99250700Y-130360000D03*
X100749300Y-130360000D03*
X101750100Y-130360000D03*
D27*
X102400300Y-130360000D03*
X103200400Y-130360000D03*
D29*
X104325600Y-129592920D03*
D30*
X104325600Y-125412080D03*
D29*
X95674400Y-129592920D03*
D30*
X95674400Y-125412080D03*
%TD*%
D31*
%TO.C,D2*%
X112068489Y-109796762D03*
X114926373Y-111446762D03*
X117376373Y-107203238D03*
X114518489Y-105553238D03*
%TD*%
D16*
%TO.C,TP5*%
X112557035Y-96635352D03*
%TD*%
D32*
%TO.C,D10*%
X102450000Y-84650000D03*
X102450000Y-81350000D03*
X97550000Y-81350000D03*
X97550000Y-84650000D03*
%TD*%
D16*
%TO.C,TP15*%
X104972647Y-79391439D03*
%TD*%
%TO.C,TP6*%
X120608560Y-104972647D03*
%TD*%
%TO.C,TP3*%
X82966128Y-120300177D03*
%TD*%
D33*
%TO.C,D14*%
X110150000Y-124500000D03*
X109450000Y-124500000D03*
%TD*%
D34*
%TO.C,R2*%
X94010000Y-124500000D03*
X92990000Y-124500000D03*
%TD*%
D16*
%TO.C,TP11*%
X79666139Y-105997841D03*
%TD*%
D35*
%TO.C,D12*%
X114518489Y-94446762D03*
X117376373Y-92796762D03*
X114926373Y-88553238D03*
X112068489Y-90203238D03*
%TD*%
D36*
%TO.C,C12*%
X89414682Y-93334308D03*
X88934682Y-94165692D03*
%TD*%
D16*
%TO.C,TP16*%
X114610719Y-84638786D03*
%TD*%
D37*
%TO.C,C16*%
X111065317Y-94165692D03*
X110585317Y-93334308D03*
%TD*%
D38*
%TO.C,C4*%
X102420000Y-103600000D03*
X103380000Y-103600000D03*
%TD*%
D39*
%TO.C,C10*%
X88934682Y-105834308D03*
X89414682Y-106665692D03*
%TD*%
D25*
%TO.C,D16*%
X96750000Y-103600000D03*
X97450000Y-103600000D03*
%TD*%
D40*
%TO.C,U1*%
X97137500Y-89875000D03*
X97137500Y-90525000D03*
X97137500Y-91175000D03*
X97137500Y-91825000D03*
X97137500Y-92475000D03*
X97137500Y-93125000D03*
X97137500Y-93775000D03*
X97137500Y-94425000D03*
X97137500Y-95075000D03*
X97137500Y-95725000D03*
X102862500Y-95725000D03*
X102862500Y-95075000D03*
X102862500Y-94425000D03*
X102862500Y-93775000D03*
X102862500Y-93125000D03*
X102862500Y-92475000D03*
X102862500Y-91825000D03*
X102862500Y-91175000D03*
X102862500Y-90525000D03*
X102862500Y-89875000D03*
%TD*%
D41*
%TO.C,C6*%
X110585317Y-106665692D03*
X111065317Y-105834308D03*
%TD*%
D16*
%TO.C,TP13*%
X84638786Y-85389280D03*
%TD*%
%TO.C,TP14*%
X94002158Y-79666139D03*
%TD*%
%TO.C,TP4*%
X108200000Y-94400000D03*
%TD*%
D42*
%TO.C,D4*%
X97550000Y-115350000D03*
X97550000Y-118650000D03*
X102450000Y-118650000D03*
X102450000Y-115350000D03*
%TD*%
D19*
%TO.C,R1*%
X105990000Y-124500000D03*
X107010000Y-124500000D03*
%TD*%
D43*
%TO.C,D7*%
X84650000Y-97550000D03*
X81350000Y-97550000D03*
X81350000Y-102450000D03*
X84650000Y-102450000D03*
%TD*%
D16*
%TO.C,TP12*%
X79391439Y-95027352D03*
%TD*%
D44*
%TO.C,C7*%
X105834308Y-111065317D03*
X106665692Y-110585317D03*
%TD*%
D45*
%TO.C,R3*%
X78493132Y-116676990D03*
X80318132Y-116676990D03*
%TD*%
D16*
%TO.C,TP17*%
X120251510Y-94201604D03*
%TD*%
D46*
%TO.C,C11*%
X87500000Y-99520000D03*
X87500000Y-100480000D03*
%TD*%
D47*
%TO.C,D8*%
X87931510Y-90203238D03*
X85073626Y-88553238D03*
X82623626Y-92796762D03*
X85481510Y-94446762D03*
%TD*%
D25*
%TO.C,D13*%
X116683871Y-120300177D03*
X117383871Y-120300177D03*
%TD*%
D16*
%TO.C,TP9*%
X95027352Y-120608560D03*
%TD*%
D48*
%TO.C,D5*%
X90203238Y-112068489D03*
X88553238Y-114926373D03*
X92796762Y-117376373D03*
X94446762Y-114518489D03*
%TD*%
D18*
%TO.C,C2*%
X94200000Y-94480000D03*
X94200000Y-93520000D03*
%TD*%
D49*
%TO.C,D3*%
X105553238Y-114518489D03*
X107203238Y-117376373D03*
X111446762Y-114926373D03*
X109796762Y-112068489D03*
%TD*%
D18*
%TO.C,C3*%
X105800000Y-94080000D03*
X105800000Y-93120000D03*
%TD*%
D38*
%TO.C,C8*%
X99520000Y-112500000D03*
X100480000Y-112500000D03*
%TD*%
D50*
%TO.C,C14*%
X100480000Y-87500000D03*
X99520000Y-87500000D03*
%TD*%
D19*
%TO.C,R6*%
X93690000Y-97800000D03*
X94710000Y-97800000D03*
%TD*%
D16*
%TO.C,TP10*%
X85389280Y-115361213D03*
%TD*%
D19*
%TO.C,R4*%
X105290000Y-96000000D03*
X106310000Y-96000000D03*
%TD*%
D51*
%TO.C,SW1*%
X96900000Y-98150000D03*
X103100000Y-98150000D03*
X96900000Y-101850000D03*
X103100000Y-101850000D03*
%TD*%
%LPD*%
M02*
