M48
; DRILL file KiCad 10.0.5-10.0.5~ubuntu24.04.1 date 2026-09-03T01:12:56
; FORMAT={-:-/ absolute / metric / decimal}
; #@! TF.CreationDate,2026-09-03T01:12:56-06:00
; #@! TF.GenerationSoftware,Kicad,Pcbnew,10.0.5-10.0.5~ubuntu24.04.1
; #@! TF.FileFunction,Plated,1,2,PTH
FMAT,2
METRIC
; #@! TA.AperFunction,Plated,PTH,ViaDrill
T1C0.300
; #@! TA.AperFunction,Plated,PTH,ComponentDrill
T2C0.800
%
G90
G05
T1
X77.55Y-117.386
X77.932Y-110.354
X79.852Y-114.043
X80.111Y-102.613
X81.469Y-92.318
X82.977Y-121.788
X84.082Y-112.207
X87.5Y-101.44
X87.793Y-84.082
X88.103Y-94.646
X88.95Y-124.5
X90.246Y-107.146
X92.02Y-124.5
X92.318Y-118.531
X92.854Y-90.246
X94.2Y-92.56
X94.646Y-111.897
X95.35Y-101.85
X95.6Y-95.2
X95.75Y-93.775
X95.85Y-103.6
X97.387Y-80.111
X97.9Y-104.9
X98.3Y-96.5
X98.56Y-87.5
X99.2Y-108.7
X99.8Y-98.1
X101.27Y-109.9
X101.4Y-90.8
X101.4Y-104.5
X101.44Y-112.5
X101.7Y-96.5
X102.613Y-119.889
X104.2Y-90.5
X104.34Y-103.6
X104.6Y-95.1
X104.65Y-101.85
X105.354Y-88.103
X105.8Y-92.16
X107.146Y-109.754
X107.682Y-81.469
X107.98Y-124.5
X109.754Y-92.854
X111.05Y-124.5
X111.897Y-105.354
X112.207Y-115.918
X112.5Y-98.56
X115.784Y-120.3
X115.918Y-87.793
X118.531Y-107.682
X119.889Y-97.387
T2
X95.674Y-125.612G85X95.674Y-125.212
G05
X95.674Y-129.943G85X95.674Y-129.243
G05
X104.326Y-125.612G85X104.326Y-125.212
G05
X104.326Y-129.943G85X104.326Y-129.243
G05
M30
