%TF.GenerationSoftware,KiCad,Pcbnew,10.0.5-10.0.5~ubuntu24.04.1*%
%TF.CreationDate,2026-09-03T02:52:50-06:00*%
%TF.ProjectId,status_beacon,73746174-7573-45f6-9265-61636f6e2e6b,rev?*%
%TF.SameCoordinates,Original*%
%TF.FileFunction,Copper,L2,Bot*%
%TF.FilePolarity,Positive*%
%FSLAX46Y46*%
G04 Gerber Fmt 4.6, Leading zero omitted, Abs format (unit mm)*
G04 Created by KiCad (PCBNEW 10.0.5-10.0.5~ubuntu24.04.1) date 2026-09-03 02:52:50*
%MOMM*%
%LPD*%
G01*
G04 APERTURE LIST*
%TA.AperFunction,ComponentPad*%
%ADD10O,1.200000X2.000000*%
%TD*%
%TA.AperFunction,ComponentPad*%
%ADD11O,1.200000X1.800000*%
%TD*%
%TA.AperFunction,ViaPad*%
%ADD12C,0.600000*%
%TD*%
%TA.AperFunction,Conductor*%
%ADD13C,0.250000*%
%TD*%
G04 APERTURE END LIST*
D10*
%TO.P,J1,SH*%
%TO.N,GND*%
X104325600Y-129592920D03*
D11*
X104325600Y-125412080D03*
D10*
X95674400Y-129592920D03*
D11*
X95674400Y-125412080D03*
%TD*%
D12*
%TO.N,GND*%
X104649999Y-101850000D03*
X77550196Y-117385564D03*
X94645692Y-111896701D03*
X105354308Y-88103297D03*
X109753932Y-92854308D03*
X112500000Y-98560000D03*
X97387189Y-80110648D03*
X101440000Y-112500000D03*
X111050000Y-124500000D03*
X98560000Y-87500000D03*
X115918277Y-87792564D03*
X118531088Y-107681916D03*
X101270000Y-109900000D03*
X95750000Y-93775000D03*
X95850000Y-103600000D03*
X88103297Y-94645692D03*
X119889351Y-97387189D03*
X77931621Y-110354374D03*
X87500000Y-101440000D03*
X112207435Y-115918277D03*
X107980000Y-124500000D03*
X80110648Y-102612810D03*
X104340000Y-103600000D03*
X87792564Y-84081721D03*
X115783871Y-120300177D03*
X81468910Y-92318083D03*
X107681916Y-81468910D03*
X90246066Y-107145692D03*
X102612810Y-119889351D03*
X92020000Y-124500000D03*
X107145692Y-109753932D03*
X84081721Y-112207435D03*
X92854308Y-90246066D03*
X92318083Y-118531088D03*
X111896701Y-105354308D03*
X94200000Y-92560000D03*
X82976959Y-121788496D03*
X95350001Y-101850000D03*
X88950000Y-124500000D03*
X79851725Y-114042860D03*
X105800000Y-92160000D03*
%TO.N,NRST*%
X99200000Y-108700000D03*
X99800000Y-98100000D03*
%TO.N,LED_DATA*%
X104200000Y-90500000D03*
X104600000Y-95100000D03*
%TO.N,SWDIO*%
X97900000Y-104900000D03*
X98300000Y-96500000D03*
%TO.N,SWCLK*%
X101400000Y-104500000D03*
X101700000Y-96500000D03*
%TO.N,BTN_MCU*%
X95600000Y-95200000D03*
X101400000Y-90800000D03*
%TD*%
%TO.N,NRST*%
D13*
X99800000Y-108000000D02*
X99800000Y-98100000D01*
X99200000Y-108700000D02*
X99800000Y-108000000D01*
%TO.N,LED_DATA*%
X104200000Y-94700000D02*
X104600000Y-95100000D01*
X104200000Y-90500000D02*
X104200000Y-94700000D01*
%TO.N,SWDIO*%
X97900000Y-96900000D02*
X97900000Y-104900000D01*
X98300000Y-96500000D02*
X97900000Y-96900000D01*
%TO.N,SWCLK*%
X101400000Y-96800000D02*
X101400000Y-104500000D01*
X101700000Y-96500000D02*
X101400000Y-96800000D01*
%TO.N,BTN_MCU*%
X97000000Y-95200000D02*
X95600000Y-95200000D01*
X101400000Y-90800000D02*
X97000000Y-95200000D01*
%TD*%
%TA.AperFunction,Conductor*%
%TO.N,GND*%
G36*
X100951532Y-68714495D02*
G01*
X100954896Y-68714598D01*
X102042720Y-68766757D01*
X102046154Y-68766981D01*
X103131535Y-68857076D01*
X103134938Y-68857419D01*
X104188708Y-68982050D01*
X104216488Y-68985336D01*
X104219913Y-68985802D01*
X105296331Y-69151384D01*
X105299690Y-69151962D01*
X106369720Y-69355019D01*
X106373007Y-69355702D01*
X107435316Y-69595983D01*
X107438638Y-69596795D01*
X108491859Y-69873990D01*
X108495182Y-69874927D01*
X108748634Y-69951184D01*
X109538049Y-70188697D01*
X109541334Y-70189748D01*
X110572715Y-70539757D01*
X110575874Y-70540892D01*
X111594375Y-70926668D01*
X111597536Y-70927928D01*
X112601929Y-71349005D01*
X112605087Y-71350394D01*
X113594203Y-71806280D01*
X113597259Y-71807754D01*
X114450433Y-72237698D01*
X114569832Y-72297868D01*
X114572890Y-72299477D01*
X115527742Y-72823221D01*
X115530743Y-72824935D01*
X116466772Y-73381706D01*
X116469703Y-73383521D01*
X116697689Y-73530139D01*
X117385660Y-73972574D01*
X117388534Y-73974493D01*
X118283447Y-74595204D01*
X118286251Y-74597223D01*
X119158896Y-75248742D01*
X119161629Y-75250857D01*
X120011055Y-75932474D01*
X120013700Y-75934674D01*
X120838808Y-76645510D01*
X120841352Y-76647780D01*
X121641181Y-77387008D01*
X121643677Y-77389398D01*
X122417157Y-78156026D01*
X122419569Y-78158501D01*
X123165838Y-78951674D01*
X123168162Y-78954231D01*
X123886325Y-79772997D01*
X123888545Y-79775619D01*
X124061775Y-79987606D01*
X124577679Y-80618932D01*
X124579818Y-80621645D01*
X125239092Y-81488483D01*
X125241136Y-81491270D01*
X125869761Y-82380592D01*
X125871706Y-82383448D01*
X126468912Y-83294168D01*
X126470751Y-83297083D01*
X126613189Y-83531768D01*
X127035815Y-84228099D01*
X127037556Y-84231084D01*
X127569773Y-85181239D01*
X127571409Y-85184283D01*
X128070154Y-86152453D01*
X128071682Y-86155552D01*
X128536317Y-87140502D01*
X128537737Y-87143653D01*
X128967723Y-88144237D01*
X128969032Y-88147435D01*
X129363843Y-89162436D01*
X129365039Y-89165678D01*
X129724180Y-90193818D01*
X129725262Y-90197099D01*
X130048297Y-91237130D01*
X130049265Y-91240448D01*
X130335816Y-92291149D01*
X130336667Y-92294498D01*
X130586375Y-93354569D01*
X130587108Y-93357946D01*
X130799663Y-94426055D01*
X130800278Y-94429455D01*
X130975428Y-95504345D01*
X130975924Y-95507765D01*
X131113452Y-96588091D01*
X131113829Y-96591526D01*
X131213575Y-97676038D01*
X131213831Y-97679484D01*
X131275665Y-98766780D01*
X131275801Y-98770233D01*
X131299651Y-99859020D01*
X131299667Y-99862475D01*
X131285504Y-100951487D01*
X131285398Y-100954941D01*
X131233241Y-102042712D01*
X131233016Y-102046161D01*
X131142923Y-103131518D01*
X131142577Y-103134956D01*
X131014662Y-104216488D01*
X131014196Y-104219912D01*
X130848617Y-105296308D01*
X130848032Y-105299714D01*
X130644989Y-106369672D01*
X130644286Y-106373055D01*
X130404019Y-107435299D01*
X130403198Y-107438655D01*
X130126008Y-108491859D01*
X130125070Y-108495185D01*
X129811301Y-109538049D01*
X129810248Y-109541341D01*
X129460257Y-110572669D01*
X129459089Y-110575921D01*
X129073340Y-111594350D01*
X129072060Y-111597560D01*
X128650993Y-112601929D01*
X128649602Y-112605092D01*
X128193731Y-113594175D01*
X128192230Y-113597287D01*
X127702130Y-114569832D01*
X127700521Y-114572890D01*
X127176777Y-115527742D01*
X127175063Y-115530743D01*
X126618292Y-116466772D01*
X126616473Y-116469710D01*
X126027424Y-117385660D01*
X126025505Y-117388534D01*
X125404794Y-118283447D01*
X125402775Y-118286251D01*
X124751256Y-119158896D01*
X124749141Y-119161629D01*
X124067524Y-120011055D01*
X124065314Y-120013712D01*
X123354503Y-120838791D01*
X123352203Y-120841369D01*
X122612990Y-121641181D01*
X122610600Y-121643677D01*
X121843972Y-122417157D01*
X121841497Y-122419569D01*
X121048324Y-123165838D01*
X121045767Y-123168162D01*
X120227001Y-123886325D01*
X120224363Y-123888558D01*
X119381066Y-124577679D01*
X119378353Y-124579818D01*
X118511515Y-125239092D01*
X118508728Y-125241136D01*
X117619406Y-125869761D01*
X117616550Y-125871706D01*
X116705830Y-126468912D01*
X116702908Y-126470756D01*
X115771899Y-127035815D01*
X115768914Y-127037556D01*
X114818759Y-127569773D01*
X114815715Y-127571409D01*
X113847545Y-128070154D01*
X113844446Y-128071682D01*
X112859496Y-128536317D01*
X112856345Y-128537737D01*
X111855761Y-128967723D01*
X111852563Y-128969032D01*
X110837562Y-129363843D01*
X110834320Y-129365039D01*
X109806180Y-129724180D01*
X109802899Y-129725262D01*
X108762868Y-130048297D01*
X108759550Y-130049265D01*
X107708849Y-130335816D01*
X107705500Y-130336667D01*
X106645429Y-130586375D01*
X106642052Y-130587108D01*
X105581820Y-130798096D01*
X105562498Y-130800000D01*
X94437279Y-130800000D01*
X94418389Y-130798181D01*
X93630111Y-130644955D01*
X93627160Y-130644335D01*
X92564699Y-130404019D01*
X92561343Y-130403198D01*
X91508139Y-130126008D01*
X91504813Y-130125070D01*
X90461949Y-129811301D01*
X90458657Y-129810248D01*
X89641836Y-129533052D01*
X89427316Y-129460252D01*
X89424091Y-129459094D01*
X88405648Y-129073340D01*
X88402438Y-129072060D01*
X88278415Y-129020065D01*
X96548800Y-129020065D01*
X96548800Y-129165015D01*
X96564522Y-129223688D01*
X96586317Y-129305029D01*
X96658787Y-129430550D01*
X96658789Y-129430552D01*
X96658791Y-129430555D01*
X96761285Y-129533049D01*
X96761287Y-129533050D01*
X96761289Y-129533052D01*
X96886811Y-129605522D01*
X96886812Y-129605522D01*
X96886815Y-129605524D01*
X97026825Y-129643040D01*
X97026826Y-129643040D01*
X97171774Y-129643040D01*
X97171775Y-129643040D01*
X97311785Y-129605524D01*
X97311787Y-129605522D01*
X97311789Y-129605522D01*
X97437310Y-129533052D01*
X97437310Y-129533051D01*
X97437315Y-129533049D01*
X97539809Y-129430555D01*
X97539812Y-129430550D01*
X97612282Y-129305029D01*
X97612282Y-129305027D01*
X97612284Y-129305025D01*
X97649800Y-129165015D01*
X97649800Y-129020065D01*
X102350200Y-129020065D01*
X102350200Y-129165015D01*
X102365922Y-129223688D01*
X102387717Y-129305029D01*
X102460187Y-129430550D01*
X102460189Y-129430552D01*
X102460191Y-129430555D01*
X102562685Y-129533049D01*
X102562687Y-129533050D01*
X102562689Y-129533052D01*
X102688211Y-129605522D01*
X102688212Y-129605522D01*
X102688215Y-129605524D01*
X102828225Y-129643040D01*
X102828226Y-129643040D01*
X102973174Y-129643040D01*
X102973175Y-129643040D01*
X103113185Y-129605524D01*
X103113187Y-129605522D01*
X103113189Y-129605522D01*
X103238710Y-129533052D01*
X103238710Y-129533051D01*
X103238715Y-129533049D01*
X103341209Y-129430555D01*
X103341212Y-129430550D01*
X103413682Y-129305029D01*
X103413682Y-129305027D01*
X103413684Y-129305025D01*
X103451200Y-129165015D01*
X103451200Y-129020065D01*
X103413684Y-128880055D01*
X103413682Y-128880052D01*
X103413682Y-128880050D01*
X103341212Y-128754529D01*
X103341210Y-128754527D01*
X103341209Y-128754525D01*
X103238715Y-128652031D01*
X103238712Y-128652029D01*
X103238710Y-128652027D01*
X103113188Y-128579557D01*
X103113189Y-128579557D01*
X103083596Y-128571627D01*
X102973175Y-128542040D01*
X102828225Y-128542040D01*
X102766490Y-128558581D01*
X102688210Y-128579557D01*
X102562689Y-128652027D01*
X102460187Y-128754529D01*
X102387717Y-128880050D01*
X102366000Y-128961100D01*
X102350200Y-129020065D01*
X97649800Y-129020065D01*
X97612284Y-128880055D01*
X97612282Y-128880052D01*
X97612282Y-128880050D01*
X97539812Y-128754529D01*
X97539810Y-128754527D01*
X97539809Y-128754525D01*
X97437315Y-128652031D01*
X97437312Y-128652029D01*
X97437310Y-128652027D01*
X97311788Y-128579557D01*
X97311789Y-128579557D01*
X97282196Y-128571627D01*
X97171775Y-128542040D01*
X97026825Y-128542040D01*
X96965090Y-128558581D01*
X96886810Y-128579557D01*
X96761289Y-128652027D01*
X96658787Y-128754529D01*
X96586317Y-128880050D01*
X96564600Y-128961100D01*
X96548800Y-129020065D01*
X88278415Y-129020065D01*
X87398069Y-128650993D01*
X87394906Y-128649602D01*
X86405823Y-128193731D01*
X86402711Y-128192230D01*
X85430166Y-127702130D01*
X85427108Y-127700521D01*
X84472256Y-127176777D01*
X84469255Y-127175063D01*
X83533226Y-126618292D01*
X83530288Y-126616473D01*
X82614338Y-126027424D01*
X82611464Y-126025505D01*
X81716551Y-125404794D01*
X81713747Y-125402775D01*
X80841102Y-124751256D01*
X80838369Y-124749141D01*
X79988943Y-124067524D01*
X79986286Y-124065314D01*
X79779836Y-123887456D01*
X79161194Y-123354491D01*
X79158629Y-123352203D01*
X78956986Y-123165838D01*
X78358817Y-122612990D01*
X78356321Y-122610600D01*
X77582841Y-121843972D01*
X77580429Y-121841497D01*
X76834160Y-121048324D01*
X76831836Y-121045767D01*
X76635861Y-120822339D01*
X76113655Y-120226980D01*
X76111458Y-120224384D01*
X75422319Y-119381066D01*
X75420180Y-119378353D01*
X74760906Y-118511515D01*
X74758862Y-118508728D01*
X74130237Y-117619406D01*
X74128292Y-117616550D01*
X73976886Y-117385660D01*
X73531071Y-116705807D01*
X73529256Y-116702931D01*
X72964167Y-115771872D01*
X72962457Y-115768941D01*
X72430219Y-114818748D01*
X72428589Y-114815715D01*
X72301924Y-114569832D01*
X71929842Y-113847542D01*
X71928316Y-113844446D01*
X71463681Y-112859496D01*
X71462261Y-112856345D01*
X71354289Y-112605092D01*
X71032257Y-111855719D01*
X71030983Y-111852605D01*
X70636155Y-110837562D01*
X70634959Y-110834320D01*
X70542400Y-110569345D01*
X70275807Y-109806147D01*
X70274747Y-109802932D01*
X69951698Y-108762859D01*
X69950733Y-108759550D01*
X69923652Y-108660250D01*
X69918318Y-108640691D01*
X98749500Y-108640691D01*
X98749500Y-108759309D01*
X98759143Y-108795297D01*
X98780202Y-108873890D01*
X98839507Y-108976608D01*
X98839509Y-108976610D01*
X98839511Y-108976613D01*
X98923387Y-109060489D01*
X98923389Y-109060490D01*
X98923391Y-109060492D01*
X99026110Y-109119797D01*
X99026111Y-109119797D01*
X99026114Y-109119799D01*
X99140691Y-109150500D01*
X99140693Y-109150500D01*
X99259307Y-109150500D01*
X99259309Y-109150500D01*
X99373886Y-109119799D01*
X99373888Y-109119797D01*
X99373890Y-109119797D01*
X99476608Y-109060492D01*
X99476608Y-109060491D01*
X99476613Y-109060489D01*
X99560489Y-108976613D01*
X99565390Y-108968124D01*
X99619797Y-108873890D01*
X99619797Y-108873888D01*
X99619799Y-108873886D01*
X99650500Y-108759309D01*
X99650500Y-108640691D01*
X99650500Y-108634367D01*
X99669407Y-108576176D01*
X99674334Y-108569939D01*
X100002292Y-108187322D01*
X100033557Y-108156058D01*
X100037733Y-108145974D01*
X100040675Y-108142542D01*
X101794200Y-108142542D01*
X101794200Y-108289457D01*
X101822860Y-108433541D01*
X101822860Y-108433543D01*
X101879078Y-108569266D01*
X101879078Y-108569267D01*
X101883695Y-108576176D01*
X101960699Y-108691420D01*
X102064580Y-108795301D01*
X102186731Y-108876920D01*
X102322458Y-108933140D01*
X102466545Y-108961800D01*
X102466547Y-108961800D01*
X102613453Y-108961800D01*
X102613455Y-108961800D01*
X102757542Y-108933140D01*
X102893269Y-108876920D01*
X103015420Y-108795301D01*
X103119301Y-108691420D01*
X103200920Y-108569269D01*
X103257140Y-108433542D01*
X103285800Y-108289455D01*
X103285800Y-108142545D01*
X103257140Y-107998458D01*
X103215564Y-107898085D01*
X103200921Y-107862733D01*
X103200921Y-107862732D01*
X103175210Y-107824253D01*
X103119301Y-107740580D01*
X103015420Y-107636699D01*
X102893269Y-107555080D01*
X102893268Y-107555079D01*
X102893266Y-107555078D01*
X102757542Y-107498860D01*
X102613457Y-107470200D01*
X102613455Y-107470200D01*
X102466545Y-107470200D01*
X102466542Y-107470200D01*
X102322458Y-107498860D01*
X102322456Y-107498860D01*
X102186733Y-107555078D01*
X102186732Y-107555078D01*
X102064580Y-107636699D01*
X102064576Y-107636702D01*
X101960702Y-107740576D01*
X101960699Y-107740580D01*
X101879078Y-107862732D01*
X101879078Y-107862733D01*
X101822860Y-107998456D01*
X101822860Y-107998458D01*
X101794200Y-108142542D01*
X100040675Y-108142542D01*
X100044838Y-108137686D01*
X100058576Y-108095656D01*
X100058850Y-108094992D01*
X100059153Y-108094515D01*
X100060025Y-108092157D01*
X100075500Y-108054800D01*
X100075500Y-108054794D01*
X100077402Y-108045236D01*
X100077784Y-108045312D01*
X100078115Y-108043235D01*
X100077727Y-108043189D01*
X100078888Y-108033516D01*
X100078891Y-108033509D01*
X100075792Y-107993221D01*
X100075500Y-107985628D01*
X100075500Y-106110542D01*
X101794200Y-106110542D01*
X101794200Y-106257457D01*
X101822860Y-106401541D01*
X101822860Y-106401543D01*
X101879078Y-106537266D01*
X101879078Y-106537267D01*
X101919749Y-106598134D01*
X101960699Y-106659420D01*
X102064580Y-106763301D01*
X102186731Y-106844920D01*
X102186732Y-106844920D01*
X102186733Y-106844921D01*
X102191108Y-106846733D01*
X102322458Y-106901140D01*
X102466545Y-106929800D01*
X102466547Y-106929800D01*
X102613453Y-106929800D01*
X102613455Y-106929800D01*
X102757542Y-106901140D01*
X102893269Y-106844920D01*
X103015420Y-106763301D01*
X103119301Y-106659420D01*
X103200920Y-106537269D01*
X103257140Y-106401542D01*
X103285800Y-106257455D01*
X103285800Y-106110545D01*
X103257140Y-105966458D01*
X103200921Y-105830733D01*
X103200921Y-105830732D01*
X103158900Y-105767844D01*
X103119301Y-105708580D01*
X103015420Y-105604699D01*
X102893269Y-105523080D01*
X102893268Y-105523079D01*
X102893266Y-105523078D01*
X102757542Y-105466860D01*
X102613457Y-105438200D01*
X102613455Y-105438200D01*
X102466545Y-105438200D01*
X102466542Y-105438200D01*
X102322458Y-105466860D01*
X102322456Y-105466860D01*
X102186733Y-105523078D01*
X102186732Y-105523078D01*
X102064580Y-105604699D01*
X102064576Y-105604702D01*
X101960702Y-105708576D01*
X101960699Y-105708580D01*
X101879078Y-105830732D01*
X101879078Y-105830733D01*
X101822860Y-105966456D01*
X101822860Y-105966458D01*
X101794200Y-106110542D01*
X100075500Y-106110542D01*
X100075500Y-104440691D01*
X100949500Y-104440691D01*
X100949500Y-104559309D01*
X100960630Y-104600846D01*
X100980202Y-104673890D01*
X101039507Y-104776608D01*
X101039509Y-104776610D01*
X101039511Y-104776613D01*
X101123387Y-104860489D01*
X101123389Y-104860490D01*
X101123391Y-104860492D01*
X101226110Y-104919797D01*
X101226111Y-104919797D01*
X101226114Y-104919799D01*
X101340691Y-104950500D01*
X101340693Y-104950500D01*
X101459307Y-104950500D01*
X101459309Y-104950500D01*
X101573886Y-104919799D01*
X101573888Y-104919797D01*
X101573890Y-104919797D01*
X101676608Y-104860492D01*
X101676608Y-104860491D01*
X101676613Y-104860489D01*
X101760489Y-104776613D01*
X101819799Y-104673886D01*
X101850500Y-104559309D01*
X101850500Y-104440691D01*
X101819799Y-104326114D01*
X101819797Y-104326111D01*
X101819797Y-104326109D01*
X101760492Y-104223391D01*
X101760490Y-104223389D01*
X101760489Y-104223387D01*
X101704494Y-104167392D01*
X101676719Y-104112878D01*
X101675500Y-104097391D01*
X101675500Y-97048354D01*
X101694407Y-96990163D01*
X101743907Y-96954199D01*
X101754155Y-96951880D01*
X101759305Y-96950500D01*
X101759309Y-96950500D01*
X101873886Y-96919799D01*
X101873888Y-96919797D01*
X101873890Y-96919797D01*
X101976608Y-96860492D01*
X101976608Y-96860491D01*
X101976613Y-96860489D01*
X102060489Y-96776613D01*
X102060492Y-96776608D01*
X102119797Y-96673890D01*
X102119797Y-96673888D01*
X102119799Y-96673886D01*
X102150500Y-96559309D01*
X102150500Y-96440691D01*
X102119799Y-96326114D01*
X102119797Y-96326111D01*
X102119797Y-96326109D01*
X102060492Y-96223391D01*
X102060490Y-96223389D01*
X102060489Y-96223387D01*
X101976613Y-96139511D01*
X101976610Y-96139509D01*
X101976608Y-96139507D01*
X101873889Y-96080202D01*
X101873890Y-96080202D01*
X101855248Y-96075207D01*
X101759309Y-96049500D01*
X101640691Y-96049500D01*
X101570567Y-96068289D01*
X101526109Y-96080202D01*
X101423391Y-96139507D01*
X101339507Y-96223391D01*
X101280202Y-96326109D01*
X101249500Y-96440692D01*
X101249500Y-96519877D01*
X101230593Y-96578068D01*
X101220504Y-96589880D01*
X101166446Y-96643938D01*
X101166444Y-96643940D01*
X101166443Y-96643942D01*
X101154040Y-96673886D01*
X101124500Y-96745200D01*
X101124500Y-104097391D01*
X101105593Y-104155582D01*
X101095509Y-104167388D01*
X101046410Y-104216488D01*
X101039508Y-104223390D01*
X101039507Y-104223391D01*
X100980202Y-104326109D01*
X100980201Y-104326114D01*
X100949500Y-104440691D01*
X100075500Y-104440691D01*
X100075500Y-98502609D01*
X100094407Y-98444418D01*
X100104490Y-98432611D01*
X100160489Y-98376613D01*
X100219799Y-98273886D01*
X100250500Y-98159309D01*
X100250500Y-98040691D01*
X100219799Y-97926114D01*
X100219797Y-97926111D01*
X100219797Y-97926109D01*
X100160492Y-97823391D01*
X100160490Y-97823389D01*
X100160489Y-97823387D01*
X100076613Y-97739511D01*
X100076610Y-97739509D01*
X100076608Y-97739507D01*
X99973889Y-97680202D01*
X99973890Y-97680202D01*
X99958350Y-97676038D01*
X99859309Y-97649500D01*
X99740691Y-97649500D01*
X99670567Y-97668289D01*
X99626109Y-97680202D01*
X99523391Y-97739507D01*
X99439507Y-97823391D01*
X99380202Y-97926109D01*
X99371851Y-97957275D01*
X99349500Y-98040691D01*
X99349500Y-98159309D01*
X99376574Y-98260351D01*
X99380202Y-98273890D01*
X99439507Y-98376608D01*
X99439509Y-98376610D01*
X99439511Y-98376613D01*
X99495505Y-98432607D01*
X99523281Y-98487122D01*
X99524500Y-98502609D01*
X99524500Y-107861463D01*
X99505593Y-107919654D01*
X99500674Y-107925881D01*
X99252920Y-108214929D01*
X99200696Y-108246805D01*
X99177755Y-108249500D01*
X99140691Y-108249500D01*
X99070567Y-108268289D01*
X99026109Y-108280202D01*
X98923391Y-108339507D01*
X98839507Y-108423391D01*
X98780202Y-108526109D01*
X98768458Y-108569939D01*
X98749500Y-108640691D01*
X69918318Y-108640691D01*
X69822528Y-108289457D01*
X69664172Y-107708810D01*
X69663341Y-107705539D01*
X69526954Y-107126542D01*
X96714200Y-107126542D01*
X96714200Y-107273457D01*
X96742860Y-107417541D01*
X96742860Y-107417543D01*
X96799078Y-107553266D01*
X96799078Y-107553267D01*
X96839749Y-107614134D01*
X96880699Y-107675420D01*
X96984580Y-107779301D01*
X97106731Y-107860920D01*
X97106732Y-107860920D01*
X97106733Y-107860921D01*
X97137479Y-107873656D01*
X97242458Y-107917140D01*
X97386545Y-107945800D01*
X97386547Y-107945800D01*
X97533453Y-107945800D01*
X97533455Y-107945800D01*
X97677542Y-107917140D01*
X97813269Y-107860920D01*
X97935420Y-107779301D01*
X98039301Y-107675420D01*
X98120920Y-107553269D01*
X98177140Y-107417542D01*
X98205800Y-107273455D01*
X98205800Y-107126545D01*
X98177140Y-106982458D01*
X98140338Y-106893610D01*
X98120921Y-106846733D01*
X98120921Y-106846732D01*
X98100585Y-106816298D01*
X98039301Y-106724580D01*
X97935420Y-106620699D01*
X97813269Y-106539080D01*
X97813268Y-106539079D01*
X97813266Y-106539078D01*
X97677542Y-106482860D01*
X97533457Y-106454200D01*
X97533455Y-106454200D01*
X97386545Y-106454200D01*
X97386542Y-106454200D01*
X97242458Y-106482860D01*
X97242456Y-106482860D01*
X97106733Y-106539078D01*
X97106732Y-106539078D01*
X96984580Y-106620699D01*
X96984576Y-106620702D01*
X96880702Y-106724576D01*
X96880699Y-106724580D01*
X96799078Y-106846732D01*
X96799078Y-106846733D01*
X96742860Y-106982456D01*
X96742860Y-106982458D01*
X96714200Y-107126542D01*
X69526954Y-107126542D01*
X69413615Y-106645392D01*
X69412898Y-106642091D01*
X69200329Y-105573914D01*
X69199725Y-105570572D01*
X69080792Y-104840691D01*
X97449500Y-104840691D01*
X97449500Y-104959309D01*
X97475478Y-105056258D01*
X97480202Y-105073890D01*
X97539507Y-105176608D01*
X97539509Y-105176610D01*
X97539511Y-105176613D01*
X97623387Y-105260489D01*
X97623389Y-105260490D01*
X97623391Y-105260492D01*
X97726110Y-105319797D01*
X97726111Y-105319797D01*
X97726114Y-105319799D01*
X97840691Y-105350500D01*
X97840693Y-105350500D01*
X97959307Y-105350500D01*
X97959309Y-105350500D01*
X98073886Y-105319799D01*
X98073888Y-105319797D01*
X98073890Y-105319797D01*
X98176608Y-105260492D01*
X98176608Y-105260491D01*
X98176613Y-105260489D01*
X98260489Y-105176613D01*
X98288658Y-105127823D01*
X98319797Y-105073890D01*
X98319797Y-105073888D01*
X98319799Y-105073886D01*
X98350500Y-104959309D01*
X98350500Y-104840691D01*
X98319799Y-104726114D01*
X98319797Y-104726111D01*
X98319797Y-104726109D01*
X98260492Y-104623391D01*
X98260490Y-104623389D01*
X98260489Y-104623387D01*
X98204494Y-104567392D01*
X98176719Y-104512878D01*
X98175500Y-104497391D01*
X98175500Y-97055123D01*
X98194407Y-96996932D01*
X98204496Y-96985119D01*
X98210119Y-96979496D01*
X98264636Y-96951719D01*
X98280123Y-96950500D01*
X98359307Y-96950500D01*
X98359309Y-96950500D01*
X98473886Y-96919799D01*
X98473888Y-96919797D01*
X98473890Y-96919797D01*
X98576608Y-96860492D01*
X98576608Y-96860491D01*
X98576613Y-96860489D01*
X98660489Y-96776613D01*
X98660492Y-96776608D01*
X98719797Y-96673890D01*
X98719797Y-96673888D01*
X98719799Y-96673886D01*
X98750500Y-96559309D01*
X98750500Y-96440691D01*
X98719799Y-96326114D01*
X98719797Y-96326111D01*
X98719797Y-96326109D01*
X98660492Y-96223391D01*
X98660490Y-96223389D01*
X98660489Y-96223387D01*
X98576613Y-96139511D01*
X98576610Y-96139509D01*
X98576608Y-96139507D01*
X98473889Y-96080202D01*
X98473890Y-96080202D01*
X98455248Y-96075207D01*
X98359309Y-96049500D01*
X98240691Y-96049500D01*
X98170567Y-96068289D01*
X98126109Y-96080202D01*
X98023391Y-96139507D01*
X97939507Y-96223391D01*
X97880202Y-96326109D01*
X97849500Y-96440692D01*
X97849500Y-96519876D01*
X97830593Y-96578067D01*
X97820504Y-96589879D01*
X97743942Y-96666442D01*
X97666446Y-96743938D01*
X97666444Y-96743940D01*
X97666443Y-96743942D01*
X97666443Y-96743943D01*
X97624500Y-96845200D01*
X97624500Y-104497391D01*
X97605593Y-104555582D01*
X97595509Y-104567388D01*
X97562052Y-104600846D01*
X97539508Y-104623390D01*
X97539507Y-104623391D01*
X97480202Y-104726109D01*
X97480201Y-104726114D01*
X97449500Y-104840691D01*
X69080792Y-104840691D01*
X69024569Y-104495652D01*
X69024074Y-104492233D01*
X68886546Y-103411907D01*
X68886169Y-103408472D01*
X68786423Y-102323960D01*
X68786167Y-102320514D01*
X68724333Y-101233218D01*
X68724197Y-101229765D01*
X68700347Y-100140978D01*
X68700331Y-100137523D01*
X68703908Y-99862475D01*
X68714495Y-99048465D01*
X68714598Y-99045104D01*
X68766757Y-97957275D01*
X68766982Y-97953837D01*
X68789696Y-97680202D01*
X68857077Y-96868457D01*
X68857421Y-96865042D01*
X68857960Y-96860492D01*
X68985336Y-95783503D01*
X68985802Y-95780086D01*
X69025842Y-95519797D01*
X69084159Y-95140691D01*
X95149500Y-95140691D01*
X95149500Y-95259309D01*
X95153406Y-95273886D01*
X95180202Y-95373890D01*
X95239507Y-95476608D01*
X95239509Y-95476610D01*
X95239511Y-95476613D01*
X95323387Y-95560489D01*
X95323389Y-95560490D01*
X95323391Y-95560492D01*
X95426110Y-95619797D01*
X95426111Y-95619797D01*
X95426114Y-95619799D01*
X95540691Y-95650500D01*
X95540693Y-95650500D01*
X95659307Y-95650500D01*
X95659309Y-95650500D01*
X95773886Y-95619799D01*
X95773888Y-95619797D01*
X95773890Y-95619797D01*
X95876608Y-95560492D01*
X95876608Y-95560491D01*
X95876613Y-95560489D01*
X95932607Y-95504494D01*
X95987122Y-95476719D01*
X96002609Y-95475500D01*
X97054799Y-95475500D01*
X97054800Y-95475500D01*
X97156058Y-95433557D01*
X97233557Y-95356058D01*
X97233556Y-95356058D01*
X101310119Y-91279496D01*
X101364636Y-91251719D01*
X101380123Y-91250500D01*
X101459307Y-91250500D01*
X101459309Y-91250500D01*
X101573886Y-91219799D01*
X101573888Y-91219797D01*
X101573890Y-91219797D01*
X101676608Y-91160492D01*
X101676608Y-91160491D01*
X101676613Y-91160489D01*
X101760489Y-91076613D01*
X101760492Y-91076608D01*
X101819797Y-90973890D01*
X101819797Y-90973888D01*
X101819799Y-90973886D01*
X101850500Y-90859309D01*
X101850500Y-90740691D01*
X101819799Y-90626114D01*
X101819797Y-90626111D01*
X101819797Y-90626109D01*
X101760492Y-90523391D01*
X101760490Y-90523389D01*
X101760489Y-90523387D01*
X101677793Y-90440691D01*
X103749500Y-90440691D01*
X103749500Y-90559309D01*
X103776574Y-90660351D01*
X103780202Y-90673890D01*
X103839507Y-90776608D01*
X103839509Y-90776610D01*
X103839511Y-90776613D01*
X103895505Y-90832607D01*
X103923281Y-90887122D01*
X103924500Y-90902609D01*
X103924500Y-94754800D01*
X103941801Y-94796568D01*
X103966441Y-94856055D01*
X103966442Y-94856056D01*
X103966443Y-94856058D01*
X104120505Y-95010121D01*
X104148281Y-95064635D01*
X104149500Y-95080122D01*
X104149500Y-95159309D01*
X104176295Y-95259307D01*
X104180202Y-95273890D01*
X104239507Y-95376608D01*
X104239509Y-95376610D01*
X104239511Y-95376613D01*
X104323387Y-95460489D01*
X104323389Y-95460490D01*
X104323391Y-95460492D01*
X104426110Y-95519797D01*
X104426111Y-95519797D01*
X104426114Y-95519799D01*
X104540691Y-95550500D01*
X104540693Y-95550500D01*
X104659307Y-95550500D01*
X104659309Y-95550500D01*
X104773886Y-95519799D01*
X104773888Y-95519797D01*
X104773890Y-95519797D01*
X104876608Y-95460492D01*
X104876608Y-95460491D01*
X104876613Y-95460489D01*
X104960489Y-95376613D01*
X104962061Y-95373890D01*
X105019797Y-95273890D01*
X105019797Y-95273888D01*
X105019799Y-95273886D01*
X105050500Y-95159309D01*
X105050500Y-95040691D01*
X105019799Y-94926114D01*
X105019797Y-94926111D01*
X105019797Y-94926109D01*
X104960492Y-94823391D01*
X104960490Y-94823389D01*
X104960489Y-94823387D01*
X104876613Y-94739511D01*
X104876610Y-94739509D01*
X104876608Y-94739507D01*
X104773889Y-94680202D01*
X104773890Y-94680202D01*
X104760351Y-94676574D01*
X104659309Y-94649500D01*
X104580124Y-94649500D01*
X104521933Y-94630593D01*
X104510120Y-94620504D01*
X104504496Y-94614880D01*
X104476719Y-94560363D01*
X104475500Y-94544876D01*
X104475500Y-90902609D01*
X104494407Y-90844418D01*
X104504490Y-90832611D01*
X104560489Y-90776613D01*
X104619799Y-90673886D01*
X104650500Y-90559309D01*
X104650500Y-90440691D01*
X104619799Y-90326114D01*
X104619797Y-90326111D01*
X104619797Y-90326109D01*
X104560492Y-90223391D01*
X104560490Y-90223389D01*
X104560489Y-90223387D01*
X104476613Y-90139511D01*
X104476610Y-90139509D01*
X104476608Y-90139507D01*
X104373889Y-90080202D01*
X104373890Y-90080202D01*
X104360351Y-90076574D01*
X104259309Y-90049500D01*
X104140691Y-90049500D01*
X104070567Y-90068289D01*
X104026109Y-90080202D01*
X103923391Y-90139507D01*
X103839507Y-90223391D01*
X103780202Y-90326109D01*
X103766985Y-90375436D01*
X103749500Y-90440691D01*
X101677793Y-90440691D01*
X101676613Y-90439511D01*
X101676610Y-90439509D01*
X101676608Y-90439507D01*
X101573889Y-90380202D01*
X101573890Y-90380202D01*
X101556103Y-90375436D01*
X101459309Y-90349500D01*
X101340691Y-90349500D01*
X101270567Y-90368289D01*
X101226109Y-90380202D01*
X101123391Y-90439507D01*
X101039507Y-90523391D01*
X100980202Y-90626109D01*
X100949500Y-90740692D01*
X100949500Y-90819875D01*
X100930593Y-90878066D01*
X100920504Y-90889879D01*
X96914881Y-94895504D01*
X96860364Y-94923281D01*
X96844877Y-94924500D01*
X96002609Y-94924500D01*
X95944418Y-94905593D01*
X95932611Y-94895509D01*
X95876613Y-94839511D01*
X95876610Y-94839509D01*
X95876608Y-94839507D01*
X95773889Y-94780202D01*
X95773890Y-94780202D01*
X95760351Y-94776574D01*
X95659309Y-94749500D01*
X95540691Y-94749500D01*
X95470567Y-94768289D01*
X95426109Y-94780202D01*
X95323391Y-94839507D01*
X95239507Y-94923391D01*
X95180202Y-95026109D01*
X95163037Y-95090169D01*
X95149500Y-95140691D01*
X69084159Y-95140691D01*
X69151386Y-94703658D01*
X69151960Y-94700317D01*
X69355021Y-93630266D01*
X69355699Y-93627002D01*
X69595986Y-92564669D01*
X69596792Y-92561374D01*
X69873994Y-91508122D01*
X69874928Y-91504813D01*
X69951444Y-91250500D01*
X70188704Y-90461925D01*
X70189750Y-90458657D01*
X70196249Y-90439507D01*
X70539763Y-89427265D01*
X70540885Y-89424142D01*
X70926675Y-88405603D01*
X70927920Y-88402482D01*
X71349016Y-87398042D01*
X71350384Y-87394931D01*
X71806291Y-86405773D01*
X71807743Y-86402761D01*
X72297877Y-85430147D01*
X72299477Y-85427108D01*
X72823221Y-84472256D01*
X72824917Y-84469286D01*
X73381725Y-83533195D01*
X73383504Y-83530320D01*
X73972593Y-82614309D01*
X73974474Y-82611492D01*
X74595217Y-81716532D01*
X74597223Y-81713747D01*
X75248742Y-80841102D01*
X75250857Y-80838369D01*
X75426943Y-80618932D01*
X75932506Y-79988904D01*
X75934650Y-79986325D01*
X76645535Y-79161161D01*
X76647754Y-79158674D01*
X77387034Y-78358788D01*
X77389369Y-78356350D01*
X78156053Y-77582814D01*
X78158473Y-77580455D01*
X78951694Y-76834141D01*
X78954210Y-76831854D01*
X79773045Y-76113631D01*
X79775585Y-76111481D01*
X80618957Y-75422298D01*
X80621619Y-75420200D01*
X81488484Y-74760904D01*
X81491270Y-74758862D01*
X82380622Y-74130216D01*
X82383418Y-74128312D01*
X83294217Y-73531054D01*
X83297041Y-73529272D01*
X84228150Y-72964152D01*
X84231032Y-72962472D01*
X85181274Y-72430205D01*
X85184248Y-72428607D01*
X86152478Y-71929831D01*
X86155526Y-71928328D01*
X87140531Y-71463667D01*
X87143624Y-71462273D01*
X88144299Y-71032249D01*
X88147373Y-71030991D01*
X89162443Y-70636152D01*
X89165678Y-70634959D01*
X90193868Y-70275801D01*
X90197049Y-70274752D01*
X91237154Y-69951693D01*
X91240423Y-69950740D01*
X92291202Y-69664168D01*
X92294445Y-69663344D01*
X93354618Y-69413612D01*
X93357895Y-69412900D01*
X94426094Y-69200327D01*
X94429416Y-69199726D01*
X95504354Y-69024568D01*
X95507755Y-69024075D01*
X96588097Y-68886545D01*
X96591520Y-68886169D01*
X97676058Y-68786421D01*
X97679464Y-68786168D01*
X98766792Y-68724332D01*
X98770222Y-68724197D01*
X99859034Y-68700346D01*
X99862462Y-68700331D01*
X100951532Y-68714495D01*
G37*
%TD.AperFunction*%
%TD*%
M02*
