%TF.GenerationSoftware,KiCad,Pcbnew,10.0.5-10.0.5~ubuntu24.04.1*%
%TF.CreationDate,2026-09-01T22:51:20-06:00*%
%TF.ProjectId,status_beacon,73746174-7573-45f6-9265-61636f6e2e6b,rev?*%
%TF.SameCoordinates,Original*%
%TF.FileFunction,Soldermask,Top*%
%TF.FilePolarity,Negative*%
%FSLAX46Y46*%
G04 Gerber Fmt 4.6, Leading zero omitted, Abs format (unit mm)*
G04 Created by KiCad (PCBNEW 10.0.5-10.0.5~ubuntu24.04.1) date 2026-09-01 22:51:20*
%MOMM*%
%LPD*%
G01*
G04 APERTURE LIST*
G04 Aperture macros list*
%AMRoundRect*
0 Rectangle with rounded corners*
0 $1 Rounding radius*
0 $2 $3 $4 $5 $6 $7 $8 $9 X,Y pos of 4 corners*
0 Add a 4 corners polygon primitive as box body*
4,1,4,$2,$3,$4,$5,$6,$7,$8,$9,$2,$3,0*
0 Add four circle primitives for the rounded corners*
1,1,$1+$1,$2,$3*
1,1,$1+$1,$4,$5*
1,1,$1+$1,$6,$7*
1,1,$1+$1,$8,$9*
0 Add four rect primitives between the rounded corners*
20,1,$1+$1,$2,$3,$4,$5,0*
20,1,$1+$1,$4,$5,$6,$7,0*
20,1,$1+$1,$6,$7,$8,$9,0*
20,1,$1+$1,$8,$9,$2,$3,0*%
G04 Aperture macros list end*
%ADD10RoundRect,0.250000X-0.250000X-0.475000X0.250000X-0.475000X0.250000X0.475000X-0.250000X0.475000X0*%
%ADD11RoundRect,0.090000X0.360000X-0.660000X0.360000X0.660000X-0.360000X0.660000X-0.360000X-0.660000X0*%
%ADD12C,0.990600*%
%ADD13C,0.787400*%
%ADD14C,1.000000*%
%ADD15RoundRect,0.140000X0.036244X0.217224X-0.206244X0.077224X-0.036244X-0.217224X0.206244X-0.077224X0*%
%ADD16RoundRect,0.140000X0.170000X-0.140000X0.170000X0.140000X-0.170000X0.140000X-0.170000X-0.140000X0*%
%ADD17RoundRect,0.135000X-0.135000X-0.185000X0.135000X-0.185000X0.135000X0.185000X-0.135000X0.185000X0*%
%ADD18RoundRect,0.090000X-0.641769X0.391577X0.018231X-0.751577X0.641769X-0.391577X-0.018231X0.751577X0*%
%ADD19RoundRect,0.090000X0.391577X0.641769X-0.751577X-0.018231X-0.391577X-0.641769X0.751577X0.018231X0*%
%ADD20RoundRect,0.090000X0.751577X-0.018231X-0.391577X0.641769X-0.751577X0.018231X0.391577X-0.641769X0*%
%ADD21RoundRect,0.140000X0.206244X0.077224X-0.036244X0.217224X-0.206244X-0.077224X0.036244X-0.217224X0*%
%ADD22RoundRect,0.140000X-0.206244X-0.077224X0.036244X-0.217224X0.206244X0.077224X-0.036244X0.217224X0*%
%ADD23RoundRect,0.050010X-0.099990X-0.199990X0.099990X-0.199990X0.099990X0.199990X-0.099990X0.199990X0*%
%ADD24C,0.600000*%
%ADD25R,0.600000X1.300000*%
%ADD26R,0.300000X1.300000*%
%ADD27O,1.200000X2.000000*%
%ADD28O,1.200000X1.800000*%
%ADD29RoundRect,0.090000X-0.018231X-0.751577X0.641769X0.391577X0.018231X0.751577X-0.641769X-0.391577X0*%
%ADD30RoundRect,0.090000X0.660000X0.360000X-0.660000X0.360000X-0.660000X-0.360000X0.660000X-0.360000X0*%
%ADD31RoundRect,0.050010X0.099990X0.199990X-0.099990X0.199990X-0.099990X-0.199990X0.099990X-0.199990X0*%
%ADD32RoundRect,0.135000X0.135000X0.185000X-0.135000X0.185000X-0.135000X-0.185000X0.135000X-0.185000X0*%
%ADD33RoundRect,0.090000X0.641769X-0.391577X-0.018231X0.751577X-0.641769X0.391577X0.018231X-0.751577X0*%
%ADD34RoundRect,0.140000X-0.077224X0.206244X-0.217224X-0.036244X0.077224X-0.206244X0.217224X0.036244X0*%
%ADD35RoundRect,0.140000X0.217224X-0.036244X0.077224X0.206244X-0.217224X0.036244X-0.077224X-0.206244X0*%
%ADD36RoundRect,0.140000X-0.140000X-0.170000X0.140000X-0.170000X0.140000X0.170000X-0.140000X0.170000X0*%
%ADD37RoundRect,0.140000X-0.217224X0.036244X-0.077224X-0.206244X0.217224X-0.036244X0.077224X0.206244X0*%
%ADD38RoundRect,0.100000X-0.637500X-0.100000X0.637500X-0.100000X0.637500X0.100000X-0.637500X0.100000X0*%
%ADD39RoundRect,0.140000X0.077224X-0.206244X0.217224X0.036244X-0.077224X0.206244X-0.217224X-0.036244X0*%
%ADD40RoundRect,0.090000X-0.660000X-0.360000X0.660000X-0.360000X0.660000X0.360000X-0.660000X0.360000X0*%
%ADD41RoundRect,0.090000X-0.360000X0.660000X-0.360000X-0.660000X0.360000X-0.660000X0.360000X0.660000X0*%
%ADD42RoundRect,0.140000X-0.036244X-0.217224X0.206244X-0.077224X0.036244X0.217224X-0.206244X0.077224X0*%
%ADD43RoundRect,0.250000X-0.262500X-0.450000X0.262500X-0.450000X0.262500X0.450000X-0.262500X0.450000X0*%
%ADD44RoundRect,0.140000X-0.170000X0.140000X-0.170000X-0.140000X0.170000X-0.140000X0.170000X0.140000X0*%
%ADD45RoundRect,0.090000X0.018231X0.751577X-0.641769X-0.391577X-0.018231X-0.751577X0.641769X0.391577X0*%
%ADD46RoundRect,0.090000X-0.751577X0.018231X0.391577X-0.641769X0.751577X-0.018231X-0.391577X0.641769X0*%
%ADD47RoundRect,0.090000X-0.391577X-0.641769X0.751577X0.018231X0.391577X0.641769X-0.751577X-0.018231X0*%
%ADD48RoundRect,0.140000X0.140000X0.170000X-0.140000X0.170000X-0.140000X-0.170000X0.140000X-0.170000X0*%
%ADD49R,1.800000X1.100000*%
G04 APERTURE END LIST*
D10*
%TO.C,C1*%
X75651888Y-112440996D03*
X77551888Y-112440996D03*
%TD*%
D11*
%TO.C,D1*%
X115350000Y-102450000D03*
X118650000Y-102450000D03*
X118650000Y-97550000D03*
X115350000Y-97550000D03*
%TD*%
D12*
%TO.C,J2*%
X97460000Y-107200000D03*
X102540000Y-106184000D03*
X102540000Y-108216000D03*
D13*
X98730000Y-107835000D03*
X98730000Y-106565000D03*
X100000000Y-107835000D03*
X100000000Y-106565000D03*
X101270000Y-107835000D03*
X101270000Y-106565000D03*
%TD*%
D14*
%TO.C,TP2*%
X74657923Y-107747850D03*
%TD*%
%TO.C,TP7*%
X115361213Y-114610719D03*
%TD*%
D15*
%TO.C,C13*%
X94165692Y-88934682D03*
X93334308Y-89414682D03*
%TD*%
D14*
%TO.C,TP8*%
X105997841Y-120333860D03*
%TD*%
D16*
%TO.C,C5*%
X112500000Y-100480000D03*
X112500000Y-99520000D03*
%TD*%
D17*
%TO.C,R5*%
X93690000Y-96000000D03*
X94710000Y-96000000D03*
%TD*%
D18*
%TO.C,D6*%
X85481510Y-105553238D03*
X82623626Y-107203238D03*
X85073626Y-111446762D03*
X87931510Y-109796762D03*
%TD*%
D19*
%TO.C,D9*%
X94446762Y-85481510D03*
X92796762Y-82623626D03*
X88553238Y-85073626D03*
X90203238Y-87931510D03*
%TD*%
D20*
%TO.C,D11*%
X109796762Y-87931510D03*
X111446762Y-85073626D03*
X107203238Y-82623626D03*
X105553238Y-85481510D03*
%TD*%
D21*
%TO.C,C15*%
X106665692Y-89414682D03*
X105834308Y-88934682D03*
%TD*%
D22*
%TO.C,C9*%
X93334308Y-110585317D03*
X94165692Y-111065317D03*
%TD*%
D14*
%TO.C,TP1*%
X120594367Y-116676990D03*
%TD*%
D23*
%TO.C,D15*%
X89850000Y-124500000D03*
X90550000Y-124500000D03*
%TD*%
D24*
%TO.C,J1*%
X102900700Y-129092540D03*
X97099300Y-129092540D03*
D25*
X103200400Y-130360000D03*
X102400300Y-130360000D03*
D26*
X101249700Y-130360000D03*
X100248900Y-130360000D03*
X99751100Y-130360000D03*
X98750300Y-130360000D03*
D25*
X97599700Y-130360000D03*
X96799600Y-130360000D03*
X96799600Y-130360000D03*
X97599700Y-130360000D03*
D26*
X98249900Y-130360000D03*
X99250700Y-130360000D03*
X100749300Y-130360000D03*
X101750100Y-130360000D03*
D25*
X102400300Y-130360000D03*
X103200400Y-130360000D03*
D27*
X104325600Y-129592920D03*
D28*
X104325600Y-125412080D03*
D27*
X95674400Y-129592920D03*
D28*
X95674400Y-125412080D03*
%TD*%
D29*
%TO.C,D2*%
X112068489Y-109796762D03*
X114926373Y-111446762D03*
X117376373Y-107203238D03*
X114518489Y-105553238D03*
%TD*%
D14*
%TO.C,TP5*%
X112557035Y-96635352D03*
%TD*%
D30*
%TO.C,D10*%
X102450000Y-84650000D03*
X102450000Y-81350000D03*
X97550000Y-81350000D03*
X97550000Y-84650000D03*
%TD*%
D14*
%TO.C,TP15*%
X104972647Y-79391439D03*
%TD*%
%TO.C,TP6*%
X120608560Y-104972647D03*
%TD*%
%TO.C,TP3*%
X82966128Y-120300177D03*
%TD*%
D31*
%TO.C,D14*%
X110150000Y-124500000D03*
X109450000Y-124500000D03*
%TD*%
D32*
%TO.C,R2*%
X94010000Y-124500000D03*
X92990000Y-124500000D03*
%TD*%
D14*
%TO.C,TP11*%
X79666139Y-105997841D03*
%TD*%
D33*
%TO.C,D12*%
X114518489Y-94446762D03*
X117376373Y-92796762D03*
X114926373Y-88553238D03*
X112068489Y-90203238D03*
%TD*%
D34*
%TO.C,C12*%
X89414682Y-93334308D03*
X88934682Y-94165692D03*
%TD*%
D14*
%TO.C,TP16*%
X114610719Y-84638786D03*
%TD*%
D35*
%TO.C,C16*%
X111065317Y-94165692D03*
X110585317Y-93334308D03*
%TD*%
D36*
%TO.C,C4*%
X102420000Y-103600000D03*
X103380000Y-103600000D03*
%TD*%
D37*
%TO.C,C10*%
X88934682Y-105834308D03*
X89414682Y-106665692D03*
%TD*%
D23*
%TO.C,D16*%
X96750000Y-103600000D03*
X97450000Y-103600000D03*
%TD*%
D38*
%TO.C,U1*%
X97137500Y-89875000D03*
X97137500Y-90525000D03*
X97137500Y-91175000D03*
X97137500Y-91825000D03*
X97137500Y-92475000D03*
X97137500Y-93125000D03*
X97137500Y-93775000D03*
X97137500Y-94425000D03*
X97137500Y-95075000D03*
X97137500Y-95725000D03*
X102862500Y-95725000D03*
X102862500Y-95075000D03*
X102862500Y-94425000D03*
X102862500Y-93775000D03*
X102862500Y-93125000D03*
X102862500Y-92475000D03*
X102862500Y-91825000D03*
X102862500Y-91175000D03*
X102862500Y-90525000D03*
X102862500Y-89875000D03*
%TD*%
D39*
%TO.C,C6*%
X110585317Y-106665692D03*
X111065317Y-105834308D03*
%TD*%
D14*
%TO.C,TP13*%
X84638786Y-85389280D03*
%TD*%
%TO.C,TP14*%
X94002158Y-79666139D03*
%TD*%
%TO.C,TP4*%
X108200000Y-94400000D03*
%TD*%
D40*
%TO.C,D4*%
X97550000Y-115350000D03*
X97550000Y-118650000D03*
X102450000Y-118650000D03*
X102450000Y-115350000D03*
%TD*%
D17*
%TO.C,R1*%
X105990000Y-124500000D03*
X107010000Y-124500000D03*
%TD*%
D41*
%TO.C,D7*%
X84650000Y-97550000D03*
X81350000Y-97550000D03*
X81350000Y-102450000D03*
X84650000Y-102450000D03*
%TD*%
D14*
%TO.C,TP12*%
X79391439Y-95027352D03*
%TD*%
D42*
%TO.C,C7*%
X105834308Y-111065317D03*
X106665692Y-110585317D03*
%TD*%
D43*
%TO.C,R3*%
X78493132Y-116676990D03*
X80318132Y-116676990D03*
%TD*%
D14*
%TO.C,TP17*%
X120251510Y-94201604D03*
%TD*%
D44*
%TO.C,C11*%
X87500000Y-99520000D03*
X87500000Y-100480000D03*
%TD*%
D45*
%TO.C,D8*%
X87931510Y-90203238D03*
X85073626Y-88553238D03*
X82623626Y-92796762D03*
X85481510Y-94446762D03*
%TD*%
D23*
%TO.C,D13*%
X116683871Y-120300177D03*
X117383871Y-120300177D03*
%TD*%
D14*
%TO.C,TP9*%
X95027352Y-120608560D03*
%TD*%
D46*
%TO.C,D5*%
X90203238Y-112068489D03*
X88553238Y-114926373D03*
X92796762Y-117376373D03*
X94446762Y-114518489D03*
%TD*%
D16*
%TO.C,C2*%
X94200000Y-94480000D03*
X94200000Y-93520000D03*
%TD*%
D47*
%TO.C,D3*%
X105553238Y-114518489D03*
X107203238Y-117376373D03*
X111446762Y-114926373D03*
X109796762Y-112068489D03*
%TD*%
D16*
%TO.C,C3*%
X105800000Y-94080000D03*
X105800000Y-93120000D03*
%TD*%
D36*
%TO.C,C8*%
X99520000Y-112500000D03*
X100480000Y-112500000D03*
%TD*%
D48*
%TO.C,C14*%
X100480000Y-87500000D03*
X99520000Y-87500000D03*
%TD*%
D17*
%TO.C,R6*%
X93690000Y-97800000D03*
X94710000Y-97800000D03*
%TD*%
D14*
%TO.C,TP10*%
X85389280Y-115361213D03*
%TD*%
D17*
%TO.C,R4*%
X105290000Y-96000000D03*
X106310000Y-96000000D03*
%TD*%
D49*
%TO.C,SW1*%
X96900000Y-98150000D03*
X103100000Y-98150000D03*
X96900000Y-101850000D03*
X103100000Y-101850000D03*
%TD*%
M02*
